<?xml version="1.0" standalone="no"?>
<!DOCTYPE svg PUBLIC "-//W3C//DTD SVG 20010904//EN"
 "http://www.w3.org/TR/2001/REC-SVG-20010904/DTD/svg10.dtd">
<svg version="1.0" xmlns="http://www.w3.org/2000/svg"
 width="32.000000pt" height="32.000000pt" viewBox="0 0 32.000000 32.000000"
 preserveAspectRatio="xMidYMid meet">

<g transform="translate(0.000000,32.000000) scale(0.100000,-0.100000)"
fill="#043873" stroke="none">
<path d="M73 294 c-49 -25 -67 -73 -68 -184 l0 -95 65 0 65 0 0 65 c0 64 0 65
-28 68 -26 3 -28 6 -22 30 3 15 17 36 31 48 19 15 25 29 22 50 -4 34 -22 39
-65 18z"/>
<path d="M260 297 c-57 -29 -86 -115 -78 -232 l3 -50 65 0 65 0 3 67 3 68 -29
0 c-28 0 -29 2 -23 33 4 20 15 36 29 42 19 8 22 17 20 45 -3 39 -20 47 -58 27z"/>
</g>
</svg>
