<?xml version="1.0" standalone="no"?>
<!DOCTYPE svg PUBLIC "-//W3C//DTD SVG 20010904//EN"
 "http://www.w3.org/TR/2001/REC-SVG-20010904/DTD/svg10.dtd">
<svg version="1.0" xmlns="http://www.w3.org/2000/svg"
 width="512.000000pt" height="512.000000pt" viewBox="0 0 512.000000 512.000000"
 preserveAspectRatio="xMidYMid meet">

<g transform="translate(0.000000,512.000000) scale(0.100000,-0.100000)"
fill="#FFFFFF" stroke="none">
<path d="M3870 4879 c-679 -98 -1238 -178 -1242 -179 -5 0 -8 -425 -8 -945 l0
-945 1250 0 1250 0 0 1125 c0 619 -3 1125 -7 1124 -5 0 -564 -81 -1243 -180z"/>
<path d="M1120 4460 c-525 -76 -992 -144 -1037 -150 l-83 -12 0 -744 0 -744
1065 0 1065 0 0 895 0 895 -27 -1 c-16 0 -458 -63 -983 -139z"/>
<path d="M0 1565 c0 -410 2 -745 5 -745 2 0 475 -67 1051 -150 576 -82 1053
-150 1060 -150 12 0 14 147 14 895 l0 895 -1065 0 -1065 0 0 -745z"/>
<path d="M2620 1366 l0 -944 28 -6 c15 -3 567 -82 1227 -176 660 -94 1210
-173 1223 -175 l22 -5 0 1125 0 1125 -1250 0 -1250 0 0 -944z"/>
</g>
</svg>
