<?xml version="1.0" standalone="no"?>
<!DOCTYPE svg PUBLIC "-//W3C//DTD SVG 20010904//EN"
 "http://www.w3.org/TR/2001/REC-SVG-20010904/DTD/svg10.dtd">
<svg version="1.0" xmlns="http://www.w3.org/2000/svg"
 width="512.000000pt" height="512.000000pt" viewBox="0 0 512.000000 512.000000"
 preserveAspectRatio="xMidYMid meet">

<g transform="translate(0.000000,512.000000) scale(0.100000,-0.100000)"
fill="#FFFFFF" stroke="none">
<path d="M1652 5108 c-7 -7 -12 -21 -12 -32 0 -12 49 -111 110 -221 60 -109
107 -202 104 -206 -2 -4 -33 -23 -67 -43 -364 -203 -620 -598 -644 -993 l-6
-103 1421 0 1422 0 0 53 c0 81 -28 233 -61 331 -97 290 -303 542 -577 707 -45
28 -76 52 -74 60 2 8 51 100 109 206 63 117 103 201 101 214 -4 30 -33 47 -55
33 -10 -6 -68 -103 -130 -215 -64 -116 -118 -203 -125 -202 -7 1 -58 17 -113
37 -314 110 -676 110 -990 0 -55 -20 -106 -36 -113 -37 -8 -1 -59 82 -121 195
-59 108 -113 203 -120 212 -16 19 -42 21 -59 4z m321 -860 c24 -13 57 -68 57
-96 0 -37 -28 -86 -59 -105 -117 -69 -235 87 -140 183 40 39 89 45 142 18z
m1303 -5 c23 -15 42 -48 45 -78 4 -49 -3 -69 -35 -101 -26 -26 -42 -34 -71
-34 -48 0 -91 26 -110 66 -21 44 -19 75 8 115 37 55 107 69 163 32z"/>
<path d="M612 3446 c-87 -29 -151 -89 -195 -184 -22 -47 -22 -47 -22 -777 l0
-730 27 -57 c113 -242 444 -252 570 -17 l23 44 0 760 0 760 -22 41 c-29 55
-95 118 -150 145 -57 28 -169 35 -231 15z"/>
<path d="M4294 3439 c-59 -23 -133 -90 -166 -151 l-23 -43 0 -760 0 -760 22
-41 c127 -237 457 -229 571 14 l27 57 0 730 0 730 -33 67 c-73 149 -244 217
-398 157z"/>
<path d="M1150 2345 c0 -1054 0 -1054 21 -1112 27 -69 94 -145 164 -181 47
-25 60 -27 213 -30 l162 -4 1 -101 c1 -56 4 -235 8 -397 6 -294 7 -295 33
-345 34 -64 90 -118 153 -147 71 -32 191 -32 257 0 65 32 125 94 156 160 l27
57 3 388 3 387 209 0 209 0 3 -387 3 -388 27 -57 c97 -208 365 -251 520 -84
80 85 88 137 88 568 l0 348 153 0 c147 0 154 1 212 29 77 36 145 109 174 184
21 58 21 58 21 1112 l0 1055 -1410 0 -1410 0 0 -1055z"/>
</g>
</svg>
